<svg xmlns="http://www.w3.org/2000/svg" version="1.1" xmlns:xlink="http://www.w3.org/1999/xlink" xmlns:svgjs="http://svgjs.dev/svgjs" width="2000" height="1247" viewBox="0 0 2000 1247"><g transform="matrix(1,0,0,1,-1.2121212121212466,0.504858299595071)"><svg viewBox="0 0 396 247" data-background-color="#ffffff" preserveAspectRatio="xMidYMid meet" height="1247" width="2000" xmlns="http://www.w3.org/2000/svg" xmlns:xlink="http://www.w3.org/1999/xlink"><g id="tight-bounds" transform="matrix(1,0,0,1,0.2400000000000091,-0.09999999999999432)"><svg viewBox="0 0 395.52 247.2" height="247.2" width="395.52"><g><svg></svg></g><g><svg viewBox="0 0 395.52 247.2" height="247.2" width="395.52"><g transform="matrix(1,0,0,1,75.54432,87.34958644067797)"><svg viewBox="0 0 244.43135999999998 72.50082711864405" height="72.50082711864405" width="244.43135999999998"><g><svg viewBox="0 0 244.43135999999998 72.50082711864405" height="72.50082711864405" width="244.43135999999998"><g><svg viewBox="0 0 244.43135999999998 72.50082711864405" height="72.50082711864405" width="244.43135999999998"><g id="textblocktransform"><svg viewBox="0 0 244.43135999999998 72.50082711864405" height="72.50082711864405" width="244.43135999999998" id="textblock"><g><svg viewBox="0 0 244.43135999999998 72.50082711864405" height="72.50082711864405" width="244.43135999999998"><g transform="matrix(1,0,0,1,0,0)"><svg width="244.43135999999998" viewBox="3.8 -28 94.39 28" height="72.50082711864405" data-palette-color="#000000"><path d="M18-4Q18.2-3.2 18.2-2L18.2-2Q18.2-0.85 18 0L18 0 4 0Q3.8-0.85 3.8-2L3.8-2Q3.8-3.2 4-4L4-4Q3.8-4.85 3.8-6L3.8-6Q3.8-7.2 4-8L4-8Q3.8-8.85 3.8-10L3.8-10Q3.8-11.2 4-12L4-12Q3.8-12.85 3.8-14L3.8-14Q3.8-15.2 4-16L4-16Q3.8-16.85 3.8-18L3.8-18Q3.8-19.2 4-20L4-20Q3.8-20.85 3.8-22L3.8-22Q3.8-23.2 4-24L4-24Q3.8-24.85 3.8-26L3.8-26Q3.8-27.2 4-28L4-28 8-28Q8.2-27.2 8.2-26L8.2-26Q8.2-24.85 8-24L8-24Q8.2-23.2 8.2-22L8.2-22Q8.2-20.85 8-20L8-20Q8.2-19.2 8.2-18L8.2-18Q8.2-16.85 8-16L8-16Q8.2-15.2 8.2-14L8.2-14Q8.2-12.85 8-12L8-12Q8.2-11.2 8.2-10L8.2-10Q8.2-8.85 8-8L8-8Q8.2-7.2 8.2-6L8.2-6Q8.2-4.85 8-4L8-4 18-4ZM36-12L28-12Q28.2-11.2 28.2-10L28.2-10Q28.2-8.85 28-8L28-8Q28.2-7.2 28.2-6L28.2-6Q28.2-4.85 28-4L28-4 36-4Q36.2-3.2 36.2-2L36.2-2Q36.2-0.85 36 0L36 0 24 0Q23.8-0.85 23.8-2L23.8-2Q23.8-3.2 24-4L24-4Q23.8-4.85 23.8-6L23.8-6Q23.8-7.2 24-8L24-8Q23.8-8.85 23.8-10L23.8-10Q23.8-11.2 24-12L24-12Q23.8-12.85 23.8-14L23.8-14Q23.8-15.2 24-16L24-16Q23.8-16.85 23.8-18L23.8-18Q23.8-19.2 24-20L24-20Q23.8-20.85 23.8-22L23.8-22Q23.8-23.2 24-24L24-24Q23.8-24.85 23.8-26L23.8-26Q23.8-27.2 24-28L24-28 36-28Q36.2-27.2 36.2-26L36.2-26Q36.2-24.85 36-24L36-24 28-24Q28.2-23.2 28.2-22L28.2-22Q28.2-20.85 28-20L28-20Q28.2-19.2 28.2-18L28.2-18Q28.2-16.85 28-16L28-16 36-16Q36.2-15.2 36.2-14L36.2-14Q36.2-12.85 36-12L36-12ZM56.5-4L58-4Q58.2-3.2 58.2-2L58.2-2Q58.2-0.85 58 0L58 0 54 0Q53.8-0.85 53.8-2L53.8-2Q53.8-3.2 54-4L54-4 52.5-4Q52.3-4.85 52.3-6L52.3-6Q52.3-7.2 52.5-8L52.5-8 51-8Q50.8-8.85 50.8-10L50.8-10Q50.8-11.2 51-12L51-12 46-12Q46.2-11.2 46.2-10L46.2-10Q46.2-8.85 46-8L46-8Q46.2-7.2 46.2-6L46.2-6Q46.2-4.85 46-4L46-4Q46.2-3.2 46.2-2L46.2-2Q46.2-0.85 46 0L46 0 42 0Q41.8-0.85 41.8-2L41.8-2Q41.8-3.2 42-4L42-4Q41.8-4.85 41.8-6L41.8-6Q41.8-7.2 42-8L42-8Q41.8-8.85 41.8-10L41.8-10Q41.8-11.2 42-12L42-12Q41.8-12.85 41.8-14L41.8-14Q41.8-15.2 42-16L42-16Q41.8-16.85 41.8-18L41.8-18Q41.8-19.2 42-20L42-20Q41.8-20.85 41.8-22L41.8-22Q41.8-23.2 42-24L42-24Q41.8-24.85 41.8-26L41.8-26Q41.8-27.2 42-28L42-28 56-28Q56.2-27.2 56.2-26L56.2-26Q56.2-24.85 56-24L56-24 58-24Q58.2-23.2 58.2-22L58.2-22Q58.2-20.85 58-20L58-20 57-20Q57.2-19.2 57.2-18L57.2-18Q57.2-16.85 57-16L57-16 54-16Q54.2-15.2 54.2-14L54.2-14Q54.2-12.85 54-12L54-12 55-12Q55.2-11.2 55.2-10L55.2-10Q55.2-8.85 55-8L55-8 56.5-8Q56.7-7.2 56.7-6L56.7-6Q56.7-4.85 56.5-4L56.5-4ZM53-16Q52.8-16.85 52.8-18L52.8-18Q52.8-19.2 53-20L53-20Q52.8-20.85 52.8-22L52.8-22Q52.8-23.2 53-24L53-24 46-24Q46.2-23.2 46.2-22L46.2-22Q46.2-20.85 46-20L46-20Q46.2-19.2 46.2-18L46.2-18Q46.2-16.85 46-16L46-16 53-16ZM77.99-16Q78.19-15.2 78.19-14L78.19-14Q78.19-12.85 77.99-12L77.99-12Q78.19-11.2 78.19-10L78.19-10Q78.19-8.85 77.99-8L77.99-8 76.49-8Q76.69-7.2 76.69-6L76.69-6Q76.69-4.85 76.49-4L76.49-4 73.99-4Q74.19-3.2 74.19-2L74.19-2Q74.19-0.85 73.99 0L73.99 0 65.99 0Q65.79-0.85 65.79-2L65.79-2Q65.79-3.2 65.99-4L65.99-4 63.49-4Q63.29-4.85 63.29-6L63.29-6Q63.29-7.2 63.49-8L63.49-8 61.99-8Q61.79-8.85 61.79-10L61.79-10Q61.79-11.2 61.99-12L61.99-12Q61.79-12.85 61.79-14L61.79-14Q61.79-15.2 61.99-16L61.99-16Q61.79-16.85 61.79-18L61.79-18Q61.79-19.2 61.99-20L61.99-20 63.49-20Q63.29-20.85 63.29-22L63.29-22Q63.29-23.2 63.49-24L63.49-24 65.99-24Q65.79-24.85 65.79-26L65.79-26Q65.79-27.2 65.99-28L65.99-28 73.99-28Q74.19-27.2 74.19-26L74.19-26Q74.19-24.85 73.99-24L73.99-24 76.49-24Q76.69-23.2 76.69-22L76.69-22Q76.69-20.85 76.49-20L76.49-20 77.99-20Q78.19-19.2 78.19-18L78.19-18Q78.19-16.85 77.99-16L77.99-16ZM73.99-8Q73.79-8.85 73.79-10L73.79-10Q73.79-11.2 73.99-12L73.99-12Q73.79-12.85 73.79-14L73.79-14Q73.79-15.2 73.99-16L73.99-16Q73.79-16.85 73.79-18L73.79-18Q73.79-19.2 73.99-20L73.99-20 72.49-20Q72.29-20.85 72.29-22L72.29-22Q72.29-23.2 72.49-24L72.49-24 67.49-24Q67.69-23.2 67.69-22L67.69-22Q67.69-20.85 67.49-20L67.49-20 65.99-20Q66.19-19.2 66.19-18L66.19-18Q66.19-16.85 65.99-16L65.99-16Q66.19-15.2 66.19-14L66.19-14Q66.19-12.85 65.99-12L65.99-12Q66.19-11.2 66.19-10L66.19-10Q66.19-8.85 65.99-8L65.99-8 67.49-8Q67.69-7.2 67.69-6L67.69-6Q67.69-4.85 67.49-4L67.49-4 72.49-4Q72.29-4.85 72.29-6L72.29-6Q72.29-7.2 72.49-8L72.49-8 73.99-8ZM98.19-26Q98.19-24.85 97.99-24L97.99-24Q98.19-23.2 98.19-22L98.19-22Q98.19-20.85 97.99-20L97.99-20 95.99-20Q96.19-19.2 96.19-18L96.19-18Q96.19-16.85 95.99-16L95.99-16 93.99-16Q94.19-15.2 94.19-14L94.19-14Q94.19-12.85 93.99-12L93.99-12 91.99-12Q92.19-11.2 92.19-10L92.19-10Q92.19-8.85 91.99-8L91.99-8Q92.19-7.2 92.19-6L92.19-6Q92.19-4.85 91.99-4L91.99-4Q92.19-3.2 92.19-2L92.19-2Q92.19-0.85 91.99 0L91.99 0 87.99 0Q87.79-0.85 87.79-2L87.79-2Q87.79-3.2 87.99-4L87.99-4Q87.79-4.85 87.79-6L87.79-6Q87.79-7.2 87.99-8L87.99-8Q87.79-8.85 87.79-10L87.79-10Q87.79-11.2 87.99-12L87.99-12 85.99-12Q85.79-12.85 85.79-14L85.79-14Q85.79-15.2 85.99-16L85.99-16 83.99-16Q83.79-16.85 83.79-18L83.79-18Q83.79-19.2 83.99-20L83.99-20 81.99-20Q81.79-20.85 81.79-22L81.79-22Q81.79-23.2 81.99-24L81.99-24Q81.79-24.85 81.79-26L81.79-26Q81.79-27.2 81.99-28L81.99-28 85.99-28Q86.19-27.2 86.19-26L86.19-26Q86.19-24.85 85.99-24L85.99-24Q86.19-23.2 86.19-22L86.19-22Q86.19-20.85 85.99-20L85.99-20 87.99-20Q88.19-19.2 88.19-18L88.19-18Q88.19-16.85 87.99-16L87.99-16 91.99-16Q91.79-16.85 91.79-18L91.79-18Q91.79-19.2 91.99-20L91.99-20 93.99-20Q93.79-20.85 93.79-22L93.79-22Q93.79-23.2 93.99-24L93.99-24Q93.79-24.85 93.79-26L93.79-26Q93.79-27.2 93.99-28L93.99-28 97.99-28Q98.19-27.2 98.19-26L98.19-26Z" opacity="1" transform="matrix(1,0,0,1,0,0)" fill="#ffffff" class="wordmark-text-0" data-fill-palette-color="primary" id="text-0"></path></svg></g></svg></g></svg></g></svg></g></svg></g></svg></g><path d="M207.553 81.35L207.553 24.882 10.116 24.882 10.116 222.318 207.553 222.318 207.553 165.85 201.015 165.85 201.015 215.78 16.654 215.78 16.654 31.42 201.015 31.42 201.015 81.35Z" fill="#ffffff" stroke="transparent" data-fill-palette-color="tertiary"></path></svg></g><defs></defs></svg><rect width="395.52" height="247.2" fill="none" stroke="none" visibility="hidden"></rect></g></svg></g></svg>